0
SECTION
2
HEADER
9
$INSUNITS
70
4
9
$ACADVER
1
AC1014
9
$HANDSEED
5
FFFF
0
ENDSEC
0
SECTION
2
TABLES
0
TABLE
2
VPORT
5
8
100
AcDbSymbolTable
0
ENDTAB
0
TABLE
2
LTYPE
5
5
100
AcDbSymbolTable
0
LTYPE
5
14
100
AcDbSymbolTableRecord
100
AcDbLinetypeTableRecord
2
BYBLOCK
70
0
0
LTYPE
5
15
100
AcDbSymbolTableRecord
100
AcDbLinetypeTableRecord
2
BYLAYER
70
0
0
ENDTAB
0
TABLE
2
LAYER
5
2
100
AcDbSymbolTable
70
2
0
LAYER
5
50
100
AcDbSymbolTableRecord
100
AcDbLayerTableRecord
2
0
70
0
6
CONTINUOUS
0
ENDTAB
0
TABLE
2
STYLE
5
3
100
AcDbSymbolTable
70
1
0
STYLE
5
11
100
AcDbSymbolTableRecord
100
AcDbTextStyleTableRecord
2
STANDARD
70
0
0
ENDTAB
0
TABLE
2
VIEW
5
6
100
AcDbSymbolTable
70
0
0
ENDTAB
0
TABLE
2
UCS
5
7
100
AcDbSymbolTable
70
0
0
ENDTAB
0
TABLE
2
APPID
5
9
100
AcDbSymbolTable
70
2
0
APPID
5
12
100
AcDbSymbolTableRecord
100
AcDbRegAppTableRecord
2
ACAD
70
0
0
ENDTAB
0
TABLE
2
DIMSTYLE
5
A
100
AcDbSymbolTable
70
1
0
ENDTAB
0
TABLE
2
BLOCK_RECORD
5
1
100
AcDbSymbolTable
70
1
0
BLOCK_RECORD
5
1F
100
AcDbSymbolTableRecord
100
AcDbBlockTableRecord
2
*MODEL_SPACE
0
BLOCK_RECORD
5
1B
100
AcDbSymbolTableRecord
100
AcDbBlockTableRecord
2
*PAPER_SPACE
0
ENDTAB
0
ENDSEC
0
SECTION
2
BLOCKS
0
BLOCK
5
20
100
AcDbEntity
100
AcDbBlockBegin
2
*MODEL_SPACE
0
ENDBLK
5
21
100
AcDbEntity
100
AcDbBlockEnd
0
BLOCK
5
1C
100
AcDbEntity
100
AcDbBlockBegin
2
*PAPER_SPACE
0
ENDBLK
5
1D
100
AcDbEntity
100
AcDbBlockEnd
0
ENDSEC
0
SECTION
2
ENTITIES
0
LINE
5
100
100
AcDbEntity
8
0
100
AcDbLine
10
168.25000026822025
20
187.66200080157958
30
1.2878587085651816e-13
11
-89.074999731779769
21
187.66200080158035
31
1.3100631690576847e-13
0
SPLINE
5
101
100
AcDbEntity
8
0
100
AcDbSpline
70
0
71
3
72
16
73
12
74
0
42
0.000000001
43
0.0000000001
44
0.0000000001
40
-1.8198024716674197
40
-1.8198024716674197
40
-1.8198024716674197
40
-1.8198024716674197
40
-1.647469249095332
40
-1.647469249095332
40
-1.3741741235513267
40
-1.3741741235513267
40
-1.0995842925836727
40
-1.0995842925836727
40
-0.82401505060816116
40
-0.82401505060816116
40
-0.71438999668367553
40
-0.71438999668367553
40
-0.71438999668367553
40
-0.71438999668367553
10
-89.074999731779059
20
187.66200080158035
30
1.354472090042691e-13
10
-89.646848973858056
20
187.66200080158043
30
1.2434497875801753e-13
10
-90.217786513421245
20
187.59161611583772
30
1.2656542480726785e-13
10
-91.65833598964511
20
187.22941556518583
30
1.2878587085651816e-13
10
-92.489616734367317
20
186.836396920749
30
1.1990408665951691e-13
10
-93.958606785295615
20
185.7512547693596
30
1.3100631690576847e-13
10
-94.581093421319338
20
185.06829693856315
30
1.2656542480726785e-13
10
-95.531243698208286
20
183.49957772879793
30
1.2656542480726785e-13
10
-95.848804398642812
20
182.62805292313891
30
1.3100631690576847e-13
10
-96.046876772626149
20
181.35926772731747
30
1.3322676295501878e-13
10
-96.074999731779727
20
180.99513519027073
30
1.2434497875801753e-13
10
-96.074999731779769
20
180.63127027189691
30
1.2434497875801753e-13
0
LINE
5
102
100
AcDbEntity
8
0
100
AcDbLine
10
-96.074999731779769
20
180.63127027189691
30
1.2656542480726785e-13
11
-96.074999731779684
21
84.864880493770471
31
5.9952043329758453e-14
0
SPLINE
5
103
100
AcDbEntity
8
0
100
AcDbSpline
70
0
71
3
72
16
73
12
74
0
42
0.000000001
43
0.0000000001
44
0.0000000001
40
-2.9251901635036122
40
-2.9251901635036122
40
-2.9251901635036122
40
-2.9251901635036122
40
-2.7405777557324926
40
-2.7405777557324926
40
-2.4658426761748706
40
-2.4658426761748706
40
-2.1923987729913996
40
-2.1923987729913996
40
-1.91990220948998
40
-1.91990220948998
40
-1.8198024716668155
40
-1.8198024716668155
40
-1.8198024716668155
40
-1.8198024716668155
10
-96.074999731779684
20
84.864880493770698
30
6.5503158452884236e-14
10
-96.074999731779727
20
84.251905885843229
30
6.3282712403633923e-14
10
-95.995182569238125
20
83.640194052624096
30
7.3274719625260332e-14
10
-95.60052192160461
20
82.160550292593101
30
6.3282712403633923e-14
10
-95.194360422809709
20
81.329832612624671
30
7.1054273576010019e-14
10
-94.089039725524358
20
79.874597100057855
30
5.9952043329758453e-14
10
-93.401703758757165
20
79.262890749669936
30
6.4392935428259079e-14
10
-91.833710753866725
20
78.339226525128268
30
5.8841820305133297e-14
10
-90.968854851399087
20
78.035164316517751
30
7.1054273576010019e-14
10
-89.739624496255615
20
77.85789518579351
30
6.3282712403633923e-14
10
-89.40715831590056
20
77.834149964086748
30
6.7723604502134549e-14
10
-89.074999731779755
20
77.834149964086748
30
7.3274719625260332e-14
0
LINE
5
104
100
AcDbEntity
8
0
100
AcDbLine
10
-89.074999731779769
20
77.834149964086748
30
7.4384942649885488e-14
11
43.757341740349432
21
77.834149964086691
31
6.5503158452884236e-14
0
LINE
5
105
100
AcDbEntity
8
0
100
AcDbLine
10
43.757341740349432
20
77.834149964086691
30
6.5503158452884236e-14
11
168.38132378699427
21
95.713785682893686
31
7.4384942649885488e-14
0
SPLINE
5
106
100
AcDbEntity
8
0
100
AcDbSpline
70
0
71
3
72
14
73
10
74
0
42
0.000000001
43
0.0000000001
44
0.0000000001
40
-1.1494905696896021
40
-1.1494905696896021
40
-1.1494905696896021
40
-1.1494905696896021
40
-0.88966261343848596
40
-0.88966261343848596
40
-0.62949749787314135
40
-0.62949749787314135
40
-0.31512304227540205
40
-0.31512304227540205
40
-0.00046075769916414938
40
-0.00046075769916414938
40
-0.00046075769916414938
40
-0.00046075769916414938
10
168.38132378699436
20
95.713785682893771
30
7.3274719625260332e-14
10
169.23850921486297
20
95.83676492767529
30
7.2164496600635175e-14
10
170.06981026870363
20
96.098647561109573
30
7.7715611723760958e-14
10
171.61693407989338
20
96.879675531601748
30
7.1054273576010019e-14
10
172.32216233125968
20
97.393874398432416
30
8.1046280797636427e-14
10
173.66742425210538
20
98.756717849794654
30
7.9936057773011271e-14
10
174.25030408289126
20
99.639580246537065
30
7.4384942649885488e-14
10
175.04550630919212
20
101.57966972118115
30
7.5495165674510645e-14
10
175.25000026822028
20
102.61876695185188
30
7.6605388699135801e-14
10
175.25000026822028
20
103.66761263980258
30
8.7707618945387367e-14
0
LINE
5
107
100
AcDbEntity
8
0
100
AcDbLine
10
175.25000026822028
20
103.66761263980258
30
8.7707618945387367e-14
11
175.25000026822022
21
180.6312702718958
31
1.2656542480726785e-13
0
SPLINE
5
108
100
AcDbEntity
8
0
100
AcDbSpline
70
0
71
3
72
16
73
12
74
0
42
0.000000001
43
0.0000000001
44
0.0000000001
40
-2.9251901635049302
40
-2.9251901635049302
40
-2.9251901635049302
40
-2.9251901635049302
40
-2.7405777557336233
40
-2.7405777557336233
40
-2.4658426761758117
40
-2.4658426761758117
40
-2.1923987729921537
40
-2.1923987729921537
40
-1.9199022094905507
40
-1.9199022094905507
40
-1.8198024716673711
40
-1.8198024716673711
40
-1.8198024716673711
40
-1.8198024716673711
10
175.25000026822022
20
180.631270271895
30
1.2212453270876722e-13
10
175.25000026822028
20
181.2442448798227
30
1.2878587085651816e-13
10
175.17018310567869
20
181.85595671304196
30
1.2878587085651816e-13
10
174.77552245804526
20
183.33560047307304
30
1.1768364061026659e-13
10
174.36936095925034
20
184.16631815304154
30
1.3322676295501878e-13
10
173.26404026196491
20
185.62155366560845
30
1.2656542480726785e-13
10
172.57670429519777
20
186.23326001599625
30
1.3100631690576847e-13
10
171.00871129030736
20
187.15692424053805
30
1.4210854715202004e-13
10
170.14385538783978
20
187.46098644914866
30
1.4210854715202004e-13
10
168.91462503269651
20
187.63825557987286
30
1.3766765505351941e-13
10
168.58215885234154
20
187.66200080157958
30
1.3322676295501878e-13
10
168.25000026822096
20
187.66200080157958
30
1.2878587085651816e-13
0
ELLIPSE
5
109
100
AcDbEntity
8
0
100
AcDbEllipse
10
39.750002399086888
20
82.387094738508878
30
5.773159728050814e-14
11
7.3285595296254788e-16
21
-1.0000000298222025
31
0.0
40
0.99999997017781228
41
0
42
6.2831853071795862
0
ELLIPSE
5
110
100
AcDbEntity
8
0
100
AcDbEllipse
10
131.25000239908687
20
101.38709530513052
30
7.6605388699135801e-14
11
7.3285595296254788e-16
21
-1.0000000298222025
31
0.0
40
0.99999997017781228
41
0
42
6.2831853071795862
0
ELLIPSE
5
111
100
AcDbEntity
8
0
100
AcDbEllipse
10
131.25000239908678
20
184.63709778782783
30
1.3988810110276972e-13
11
7.3285595296254788e-16
21
-1.0000000298222025
31
0.0
40
0.99999997017781228
41
0
42
6.2831853071795862
0
ELLIPSE
5
112
100
AcDbEntity
8
0
100
AcDbEllipse
10
39.750002399086796
20
184.63709778782774
30
1.3766765505351941e-13
11
7.3285595296254788e-16
21
-1.0000000298222025
31
0.0
40
0.99999997017781228
41
0
42
6.2831853071795862
0
ELLIPSE
5
113
100
AcDbEntity
8
0
100
AcDbEllipse
10
-51.749997600913119
20
82.387094738508779
30
6.3282712403633923e-14
11
7.1089744276366714e-16
21
-1.0000000298222016
31
0.0
40
0.99999997017781261
41
0
42
6.2831853071795862
0
ELLIPSE
5
114
100
AcDbEntity
8
0
100
AcDbEllipse
10
-51.749997600913204
20
184.63709778782768
30
1.3988810110276972e-13
11
7.1089744276366714e-16
21
-1.0000000298222016
31
0.0
40
0.99999997017781261
41
0
42
6.2831853071795862
0
ENDSEC
0
SECTION
2
OBJECTS
0
DICTIONARY
5
C
100
AcDbDictionary
3
ACAD_GROUP
350
D
3
ACAD_MLINESTYLE
350
17
0
DICTIONARY
5
D
100
AcDbDictionary
0
DICTIONARY
5
1A
330
C
100
AcDbDictionary
0
DICTIONARY
5
17
100
AcDbDictionary
0
ENDSEC
0
EOF
